<svg aria-hidden="true" style="position: absolute; width: 0; height: 0; overflow: hidden;" version="1.1" xmlns="http://www.w3.org/2000/svg" xmlns:xlink="http://www.w3.org/1999/xlink">
<defs>
<symbol id="icon-close" viewBox="0 0 32 32">
<path  d="M8.614 24.71l-1.297-1.324 7.359-7.386-7.359-7.386 1.297-1.324 7.386 7.386 7.386-7.386 1.297 1.324-7.359 7.386 7.359 7.386-1.297 1.324-7.386-7.386-7.386 7.386z"></path>
</symbol>
<symbol id="icon-chevron" viewBox="0 0 32 32">
<path  d="M17.315 16l-6.052-6.053 1.297-1.324 7.377 7.377-7.377 7.377-1.297-1.324 6.052-6.053z"></path>
</symbol>
<symbol id="icon-grade" viewBox="0 0 32 32">
<path  d="M11.733 22.517l4.267-2.567 4.267 2.6-1.117-4.867 3.767-3.25-4.95-0.45-1.967-4.6-1.95 4.589-4.95 0.427 3.767 3.267-1.133 4.85zM10.433 24.317l1.483-6.336-4.917-4.247 6.467-0.567 2.533-5.967 2.55 5.967 6.45 0.567-4.917 4.247 1.499 6.336-5.574-3.37-5.574 3.37z"></path>
</symbol>
<symbol id="icon-location" viewBox="0 0 32 32">
<path  d="M14.667 30.667v-2.667q-4.167-0.467-7.15-3.45t-3.45-7.15h-2.667v-2.667h2.667q0.467-4.167 3.45-7.15t7.15-3.45v-2.667h2.667v2.667q4.167 0.467 7.15 3.45t3.45 7.15h2.667v2.667h-2.667q-0.467 4.167-3.45 7.15t-7.15 3.45v2.667h-2.667zM16 25.4q3.867 0 6.6-2.733t2.733-6.6-2.733-6.6-6.6-2.733-6.6 2.733-2.733 6.6 2.733 6.6 6.6 2.733z"></path>
</symbol>
</defs>
</svg>
